<?xml version="1.0" encoding="UTF-8"?>
<svg id="Layer_2" data-name="Layer 2" xmlns="http://www.w3.org/2000/svg" viewBox="0 0 295.62 155.01">
  <defs>
    <style>
      .cls-1 {
        opacity: .6;
      }

      .cls-1, .cls-2, .cls-3, .cls-4, .cls-5 {
        fill: #ff9248;
      }

      .cls-2 {
        opacity: .4;
      }

      .cls-6 {
        fill: #fff;
      }

      .cls-3 {
        opacity: .8;
      }

      .cls-5 {
        opacity: .2;
      }
    </style>
  </defs>
  <g id="Layer_1-2" data-name="Layer 1">
    <g>
      <g>
        <path class="cls-6" d="M34.53.02h226.57c19.06,0,34.53,15.47,34.53,34.53v90.96c0,16.28-13.22,29.5-29.5,29.5H34.53C15.47,155.01,0,139.54,0,120.48V34.54C0,15.49,15.47.02,34.53.02Z"/>
        <path class="cls-4" d="M266.15,2.73c14.75,0,26.75,12,26.75,26.75v96.04c0,14.75-12,26.75-26.75,26.75H29.48c-14.75,0-26.75-12-26.75-26.75V29.48C2.73,14.73,14.73,2.73,29.48,2.73h236.67M266.15,0H29.48C13.2,0,0,13.2,0,29.48v96.04c0,16.28,13.2,29.48,29.48,29.48h236.67c16.28,0,29.48-13.2,29.48-29.48V29.48c0-16.28-13.2-29.48-29.48-29.48h0Z"/>
      </g>
      <g>
        <path class="cls-4" d="M136.77,72.66V25.79h28.46v8.72h-18.76v8.72h18.76v8.59h-18.76v20.83h-9.69Z"/>
        <path class="cls-4" d="M168.01,72.66V25.79h9.35v46.87h-9.35Z"/>
        <path class="cls-4" d="M195.23,73.49c-2.59,0-4.92-.6-6.99-1.8-2.08-1.2-3.71-2.92-4.92-5.16-1.2-2.24-1.8-4.86-1.8-7.86v-22.02h9.35v19.73c0,3.09.62,5.36,1.87,6.79,1.25,1.43,3.02,2.15,5.33,2.15,1.98,0,3.73-.71,5.23-2.15,1.5-1.43,2.25-3.69,2.25-6.79v-19.73h9.35v36.01h-9.07v-5.4c-.88,2.08-2.16,3.63-3.84,4.67-1.69,1.04-3.94,1.56-6.75,1.56Z"/>
        <path class="cls-4" d="M216.6,72.66l13.5-18-12.81-18h11.15l7.34,11.43,7.62-11.43h10.94l-12.81,18.14,13.5,17.86h-11.36l-7.83-11.49-8.1,11.49h-11.15Z"/>
        <path class="cls-4" d="M127.31,129.22l19.15-46.87h9.68l19.08,46.87h-10.52l-3.32-9.21h-20.22l-3.32,9.21h-10.52ZM149.54,98.41l-5.19,13.23h13.85l-5.19-13.23c-.69-1.85-1.27-3.69-1.73-5.54-.46,1.99-1.04,3.83-1.73,5.54Z"/>
        <path class="cls-4" d="M186.87,129.22c-3.55,0-6.28-.88-8.17-2.63-1.89-1.75-2.84-4.59-2.84-8.52v-16.89h-5.05v-7.96h5.05v-5.71l9.35-1.78v7.48h6.79v7.96h-6.79v16.41c0,2.22.97,3.32,2.91,3.32h3.88v8.31h-5.12Z"/>
        <path class="cls-4" d="M194.78,129.22v-46.87h9.35v46.87h-9.35Z"/>
        <path class="cls-4" d="M224.71,130.12c-3.28,0-6.26-.84-8.97-2.53-2.7-1.68-4.85-3.95-6.44-6.79-1.59-2.84-2.39-5.99-2.39-9.45,0-2.58.46-5.02,1.38-7.3.92-2.28,2.19-4.29,3.81-6.02s3.5-3.09,5.64-4.08c2.15-.99,4.47-1.49,6.96-1.49,3.14,0,5.58.59,7.34,1.77,1.75,1.18,3.12,2.74,4.08,4.67v-5.68h9.28v36.01h-9.07v-5.88c-.97,2.03-2.34,3.67-4.12,4.92-1.78,1.25-4.28,1.87-7.51,1.87ZM226.23,121.67c2.08,0,3.87-.47,5.37-1.42,1.5-.95,2.66-2.2,3.5-3.77.83-1.57,1.25-3.28,1.25-5.12s-.42-3.62-1.25-5.19c-.83-1.57-2-2.84-3.5-3.81-1.5-.97-3.29-1.45-5.37-1.45s-3.73.47-5.23,1.42-2.67,2.2-3.5,3.77c-.83,1.57-1.25,3.3-1.25,5.19s.41,3.5,1.25,5.09c.83,1.59,2,2.87,3.5,3.84,1.5.97,3.24,1.45,5.23,1.45Z"/>
        <path class="cls-4" d="M261.91,130.12c-6.05,0-11.03-2.1-14.96-6.3l6.3-5.75c2.63,2.96,5.45,4.43,8.45,4.43,1.61,0,2.85-.36,3.7-1.07.85-.72,1.28-1.6,1.28-2.67,0-.65-.15-1.2-.45-1.66-.3-.46-.92-.9-1.87-1.32-.95-.42-2.37-.83-4.26-1.25-3.23-.78-5.63-1.75-7.2-2.91-1.57-1.15-2.61-2.45-3.12-3.88-.51-1.43-.76-2.91-.76-4.43,0-3.14,1.19-5.76,3.57-7.86,2.38-2.1,5.67-3.15,9.87-3.15,2.91,0,5.4.44,7.48,1.32,2.08.88,4.04,2.52,5.88,4.92l-6.79,5.19c-.88-1.39-1.86-2.38-2.94-2.98-1.09-.6-2.23-.9-3.43-.9-1.29,0-2.37.25-3.22.76-.85.51-1.28,1.32-1.28,2.42,0,.6.28,1.19.83,1.77.55.58,1.89,1.14,4.02,1.7,3.51.88,6.18,1.9,8.03,3.08,1.85,1.18,3.12,2.5,3.81,3.98.69,1.48,1.04,3.12,1.04,4.92,0,2.22-.61,4.2-1.84,5.96-1.22,1.75-2.89,3.14-4.98,4.15-2.1,1.01-4.49,1.52-7.17,1.52Z"/>
      </g>
      <g>
        <path class="cls-6" d="M105.24,41.99c-9.93-9.93-23.69-15.26-37.78-14.63-12.46.6-24.16,5.78-32.96,14.58-4.68,4.68-6.79,8.66-6.43,12.16.58,5.56,7.19,9.87,15.56,15.34,6.19,4.05,13.22,8.63,19.37,14.79,6.16,6.16,10.74,13.18,14.79,19.38,5.46,8.37,9.78,14.98,15.34,15.55.26.03.51.04.78.04,3.3,0,7.04-2.13,11.39-6.47,8.8-8.8,13.99-20.48,14.6-32.87.04-.85.06-1.62.06-2.35,0-13.42-5.22-26.03-14.71-35.51Z"/>
        <path class="cls-6" d="M24.79,63.19c2.22,10.51,12.25,20.52,22.84,31.05l5.37,5.37c10.53,10.58,20.54,20.62,31.04,22.84.11.02.09.18-.02.18-2.89.03-5.85-.4-8.89-1.29-9.05-2.66-18.66-9.16-29.36-19.87-10.71-10.71-17.2-20.31-19.87-29.36-.89-3.04-1.32-6.01-1.29-8.89,0-.11.16-.13.18-.02Z"/>
        <path class="cls-6" d="M80.57,124.11c.11.01.1.16,0,.17-14.49.96-29.53-6.12-40.51-17.1-10.97-10.97-18.05-25.99-17.1-40.47,0-.11.16-.11.17,0,.21,1.92.61,3.88,1.19,5.86,2.74,9.32,9.38,19.16,20.28,30.07,10.91,10.91,20.74,17.54,30.07,20.28,2,.59,3.97.98,5.9,1.19Z"/>
        <path class="cls-6" d="M27.43,57.28c2.18,4.78,8.14,8.68,15.38,13.41,6.14,4.01,13.09,8.55,19.14,14.6,6.05,6.05,10.59,13,14.6,19.14,4.73,7.24,8.63,13.21,13.41,15.38.11.05.06.21-.06.2-7.33-1-13.96-8.74-21.56-17.64-3.48-4.08-7.09-8.3-11.13-12.34-4.04-4.04-8.26-7.64-12.34-11.13-8.9-7.61-16.64-14.23-17.64-21.56-.02-.12.15-.17.2-.06Z"/>
        <path class="cls-6" d="M26.22,60.27c2.3,6.83,9.47,12.97,17.58,19.89,4.05,3.46,8.25,7.04,12.24,11.04,3.99,4,7.58,8.19,11.04,12.24,6.93,8.11,13.06,15.28,19.9,17.58.1.03.07.18-.04.18-10.92-.82-21.54-11.47-32.76-22.76l-5.38-5.38c-11.28-11.22-21.93-21.84-22.75-32.76,0-.11.14-.14.18-.04Z"/>
        <path class="cls-3" d="M80.59,123.95c-1.95-.21-3.92-.61-5.88-1.18-9.3-2.73-19.11-9.35-30-20.24-10.89-10.89-17.51-20.7-20.24-30-.58-1.96-.98-3.92-1.19-5.83-.01-.13-.13-.22-.25-.22-.13,0-.24.1-.24.23-.9,13.78,5.51,28.96,17.15,40.59,10.92,10.92,24.94,17.23,38.01,17.23.88,0,1.76-.03,2.63-.09.13,0,.23-.11.23-.24,0-.13-.09-.24-.22-.25Z"/>
        <path class="cls-1" d="M84.08,122.28c-10.5-2.22-20.44-12.21-30.96-22.79l-5.37-5.37c-10.58-10.53-20.58-20.47-22.79-30.97-.03-.13-.15-.22-.27-.2-.13.01-.23.12-.23.25-.03,2.91.41,5.92,1.3,8.94,2.67,9.08,9.18,18.71,19.91,29.43,10.72,10.72,20.35,17.24,29.43,19.91,2.94.86,5.86,1.3,8.69,1.3.08,0,.16,0,.24,0,.13,0,.24-.1.25-.23.01-.13-.07-.25-.2-.27Z"/>
        <path class="cls-2" d="M87.02,120.86c-6.8-2.28-12.83-9.35-19.82-17.53-3.46-4.05-7.04-8.24-11.05-12.25-4-4-8.19-7.58-12.25-11.05-8.18-6.99-15.24-13.02-17.53-19.82-.04-.12-.16-.19-.29-.17-.13.03-.21.14-.2.27.83,11,11.5,21.62,22.8,32.86l5.38,5.38c11.24,11.3,21.86,21.98,32.87,22.8,0,0,.01,0,.02,0,.12,0,.22-.08.25-.2.03-.13-.04-.25-.17-.29Z"/>
        <path class="cls-5" d="M90.03,119.66c-4.75-2.16-8.73-8.26-13.34-15.32-4.01-6.14-8.55-13.1-14.62-19.17-6.06-6.06-13.02-10.61-19.17-14.62-7.06-4.61-13.16-8.59-15.32-13.34-.06-.12-.19-.18-.32-.15-.13.04-.21.16-.19.29,1.02,7.42,8.75,14.02,17.7,21.67,4.07,3.48,8.29,7.08,12.33,11.12s7.62,8.23,11.09,12.29l.03.04c7.65,8.95,14.25,16.68,21.67,17.7.01,0,.02,0,.04,0,.12,0,.22-.08.26-.19.04-.13-.02-.26-.15-.32Z"/>
        <path class="cls-4" d="M121.45,77.33c0-13.77-5.36-26.71-15.1-36.45-9.74-9.74-22.68-15.1-36.45-15.1-.03,0-.06,0-.09,0s-.06,0-.08,0c-13.81,0-26.8,5.38-36.57,15.15-.48.48-.94.97-1.39,1.46-.06.07-.12.13-.18.2-9.03,9.85-13.55,22.38-13.55,34.91,0,13.24,5.04,26.49,15.12,36.57,9.77,9.77,22.75,15.15,36.57,15.15,13.81,0,26.8-5.38,36.57-15.15,9.77-9.77,15.15-22.75,15.15-36.57,0-.03,0-.06,0-.08,0-.03,0-.06,0-.09ZM22.95,66.72c0-.11.16-.11.17,0,.21,1.92.61,3.88,1.19,5.86,2.74,9.32,9.38,19.16,20.28,30.07,10.91,10.91,20.74,17.54,30.07,20.28,2,.59,3.97.98,5.9,1.19.11.01.1.16,0,.17-14.49.96-29.53-6.12-40.51-17.1-10.97-10.97-18.05-25.99-17.1-40.47ZM84.02,122.62c-2.89.03-5.85-.4-8.89-1.29-9.05-2.66-18.66-9.16-29.36-19.87-10.71-10.71-17.2-20.31-19.87-29.36-.89-3.04-1.32-6.01-1.29-8.89,0-.11.16-.13.18-.02,2.22,10.51,12.25,20.52,22.84,31.05l5.37,5.37c10.53,10.58,20.54,20.62,31.04,22.84.11.02.09.18-.02.18ZM86.94,121.19c-10.92-.82-21.54-11.47-32.76-22.76l-5.38-5.38c-11.28-11.22-21.93-21.84-22.75-32.76,0-.11.14-.14.18-.04,2.3,6.83,9.47,12.97,17.58,19.89,4.05,3.46,8.25,7.04,12.24,11.04,3.99,4,7.58,8.19,11.04,12.24,6.93,8.11,13.06,15.28,19.9,17.58.1.03.07.18-.04.18ZM89.9,120c-7.33-1-13.96-8.74-21.56-17.64-3.48-4.08-7.09-8.3-11.13-12.34-4.04-4.04-8.26-7.64-12.34-11.13-8.9-7.61-16.64-14.23-17.64-21.56-.02-.12.15-.17.2-.06,2.18,4.78,8.14,8.68,15.38,13.41,6.14,4.01,13.09,8.55,19.14,14.6,6.05,6.05,10.59,13,14.6,19.14,4.73,7.24,8.63,13.21,13.41,15.38.11.05.06.21-.06.2ZM119.73,79.85c-.61,12.38-5.72,23.94-14.55,32.77-4.65,4.65-8.59,6.74-12.03,6.39-5.48-.57-9.78-7.15-15.22-15.48-4.05-6.2-8.64-13.23-14.81-19.41-6.17-6.17-13.2-10.76-19.41-14.81-8.33-5.44-14.91-9.73-15.48-15.22-.35-3.44,1.73-7.38,6.38-12.03,9.11-9.11,20.9-13.95,32.86-14.53,13.56-.61,27.32,4.25,37.65,14.58,9.46,9.45,14.66,22.03,14.66,35.4,0,.78-.02,1.57-.06,2.35Z"/>
      </g>
    </g>
  </g>
</svg>